<svg width="145" height="28" viewBox="0 0 145 28" fill="none" xmlns="http://www.w3.org/2000/svg">
<g clip-path="url(#clip0_63_191)">
<path d="M4.72587 18.7879C4.63116 19.1028 4.52934 19.4343 4.41804 19.7824C4.30675 20.1305 4.18836 20.4928 4.06286 20.8716C3.93736 21.2813 3.83317 21.6933 3.75503 22.1029C3.67689 22.5126 3.5585 22.9246 3.39985 23.3342C3.21042 23.9333 3.00441 24.298 2.78419 24.4235C2.56398 24.549 2.15197 24.5348 1.55289 24.3761C0.984592 24.2175 0.605728 24.0044 0.416296 23.7368C0.226865 23.4692 0.210289 23.0667 0.368938 22.5292C0.873301 20.6348 1.38003 18.7571 1.88439 16.8936C2.38876 15.03 2.90969 13.1523 3.44721 11.258C3.70057 10.3416 3.96814 9.4181 4.25229 8.48752C4.53644 7.55693 4.85137 6.63345 5.19945 5.71707C5.73696 4.2324 6.39998 2.89217 7.18849 1.69165C7.53657 1.12335 7.86807 0.869986 8.183 0.933919C8.49793 0.997853 8.82944 1.31278 9.17752 1.88108C9.80975 2.82824 10.2904 3.82986 10.6219 4.88831C10.9534 5.94676 11.2447 7.02652 11.4981 8.13233C11.9716 10.0266 12.4926 11.921 13.0609 13.8153C13.6292 15.7096 14.1809 17.6039 14.7184 19.4982L16.1391 24.755C16.1699 24.9444 16.2102 25.1338 16.2575 25.3233C16.3049 25.5127 16.3286 25.7021 16.3286 25.8916C16.3286 26.081 16.2741 26.2539 16.1628 26.4125C16.0515 26.5712 15.8716 26.6967 15.6182 26.7914C15.1446 27.0116 14.6403 27.0211 14.1027 26.8151C13.5652 26.609 13.2029 26.2704 13.0135 25.7969C12.7933 25.1978 12.5944 24.5892 12.4215 23.9736C12.2487 23.3579 12.0829 22.7494 11.9243 22.1503C11.8296 21.8022 11.7514 21.447 11.6875 21.0847C11.6236 20.7224 11.5288 20.3673 11.4033 20.0192C11.2778 19.6711 11.1026 19.3799 10.8824 19.1431C10.6622 18.9063 10.3615 18.7879 9.98261 18.7879H4.72587ZM8.23036 8.55855C8.10486 8.52777 7.92964 8.5112 7.70942 8.5112C7.26663 9.36364 6.92091 10.2634 6.66755 11.2106C6.41418 12.1578 6.14661 13.1049 5.86246 14.0521C5.79853 14.3362 5.86246 14.5801 6.05189 14.7861C6.24133 14.9921 6.49469 15.1105 6.80962 15.1413C7.34714 15.1721 7.87518 15.1816 8.39611 15.165C8.91705 15.1484 9.49245 15.1413 10.1247 15.1413C9.7766 13.9408 9.45457 12.8042 9.15384 11.7315C8.85312 10.6589 8.54529 9.60043 8.23036 8.55855Z" fill="white"/>
<path d="M16.7073 3.96483C16.7712 3.71147 16.8186 3.39654 16.8493 3.01767C16.8801 2.63881 16.9441 2.25995 17.0388 1.88108C17.2921 1.09257 17.8273 0.66635 18.649 0.602417C19.0918 0.602417 19.4067 0.737387 19.5961 1.00496C19.7855 1.27253 19.911 1.58036 19.975 1.92844C20.1336 2.7501 20.2828 3.58597 20.4249 4.43841C20.567 5.29086 20.7019 6.12672 20.8274 6.94838C21.0169 8.55856 21.1897 9.9864 21.3484 11.2343C21.507 12.4822 21.6562 13.704 21.7983 14.9045C21.9403 16.105 22.0895 17.3269 22.2482 18.5748C22.4068 19.8226 22.5797 21.2505 22.7691 22.8607C22.833 23.3035 22.8946 23.7297 22.9585 24.1393C23.0225 24.549 23.084 24.9752 23.148 25.418C23.2119 25.8608 23.148 26.1828 22.9585 26.3888C22.7691 26.5948 22.4849 26.744 22.1061 26.8387C21.2229 27.0282 20.5504 26.9737 20.0934 26.673C19.6364 26.3723 19.3593 25.7661 19.2646 24.8497C19.0112 22.9246 18.791 21.1795 18.6016 19.6166C18.4122 18.0538 18.2227 16.5147 18.0333 14.9992C17.8439 13.4838 17.6473 11.9447 17.4413 10.3818C17.2353 8.81902 17.0222 7.07388 16.802 5.14878C16.7712 4.99013 16.7546 4.82438 16.7546 4.65152C16.7546 4.47867 16.7381 4.24898 16.7073 3.96483V3.96483Z" fill="white"/>
<path d="M23.5742 2.68612C23.6382 2.43276 23.6855 2.20544 23.7163 1.99943C23.7471 1.79342 23.7944 1.58031 23.8584 1.3601C23.9223 1.13988 24.0644 0.96466 24.2846 0.839162C24.4432 0.744446 24.6469 0.720767 24.9002 0.768125C25.1536 0.815483 25.4141 0.910199 25.6816 1.05227C25.9492 1.19435 26.2026 1.37667 26.4394 1.59689C26.6762 1.8171 26.8585 2.05389 26.984 2.30726C27.1426 2.59141 27.1663 2.92291 27.055 3.30178C26.9437 3.68064 26.7306 3.99557 26.4157 4.24894C26.0676 4.5023 25.6343 4.58754 25.1134 4.5094C24.5924 4.43126 24.2064 4.20158 23.9531 3.82271C23.8276 3.66406 23.7471 3.4841 23.7163 3.2781C23.6855 3.07209 23.6382 2.87555 23.5742 2.68612V2.68612ZM28.7836 25.7021C28.6249 26.1757 28.3408 26.5072 27.9312 26.6966C27.6162 26.8553 27.2918 26.95 26.9603 26.9808C26.6288 27.0115 26.3376 26.8387 26.0842 26.4598C25.9255 26.2065 25.7835 25.9389 25.658 25.6547C25.5325 25.3706 25.452 25.0864 25.4212 24.8023C25.201 22.3397 25.0021 19.9078 24.8292 17.5092C24.6563 15.1105 24.474 12.6787 24.2846 10.216C24.2846 10.0574 24.2917 9.90821 24.3083 9.76614C24.3248 9.62407 24.3319 9.47489 24.3319 9.31624C24.3627 8.96816 24.4432 8.66033 24.5687 8.39276C24.6942 8.12519 24.931 7.99021 25.2791 7.99021C25.5325 7.99021 25.8071 8.05415 26.1079 8.17965C26.4086 8.30515 26.6359 8.48037 26.7946 8.70058C27.0148 8.95395 27.19 9.26178 27.3155 9.62406C27.441 9.98635 27.5215 10.3415 27.5523 10.6896C27.7109 12.2051 27.8293 13.7134 27.9075 15.2123C27.9856 16.7112 28.0898 18.2195 28.2153 19.735C28.2461 20.0831 28.31 20.5093 28.4047 21.0137C28.4994 21.518 28.5942 22.0484 28.6889 22.6001C28.7836 23.1519 28.8546 23.706 28.902 24.2577C28.9493 24.8094 28.9091 25.2924 28.7836 25.7021V25.7021Z" fill="white"/>
<path d="M32.2857 19.9245C32.2857 22.451 33.3915 23.8244 35.6008 24.0446C36.1383 24.1086 36.69 24.1228 37.2583 24.092C37.8266 24.0612 38.3949 24.0446 38.9632 24.0446C40.0358 24.0754 40.7462 24.5348 41.0943 25.418C41.189 25.7329 41.1961 26.0029 41.118 26.2231C41.0398 26.4433 40.8267 26.5854 40.4786 26.6493C39.1218 26.8695 37.7721 26.9737 36.4295 26.9571C35.0869 26.9406 33.7846 26.538 32.5225 25.7495C31.5114 25.1173 30.7702 24.3453 30.2967 23.429C29.8231 22.5126 29.5082 21.5181 29.3495 20.4454C29.1909 19.6238 29.1766 18.8045 29.3021 17.9828C29.4276 17.1611 29.6171 16.3418 29.8704 15.5202C30.2185 14.5091 30.73 13.6661 31.4096 12.9865C32.0892 12.3069 32.8706 11.715 33.7538 11.2106C34.8265 10.5784 35.8683 10.6731 36.8794 11.4948C37.1328 11.6842 37.353 11.8902 37.5424 12.1104C37.7319 12.3306 37.9047 12.5674 38.0634 12.8208C38.6009 13.6424 39.0105 14.5091 39.2947 15.4255C39.5788 16.3418 39.799 17.2724 39.9577 18.2196C40.0524 18.8518 40.005 19.2544 39.8156 19.4272C39.6262 19.6001 39.2165 19.7043 38.5843 19.735H36.098C35.2621 19.735 34.4334 19.7516 33.6117 19.7824C33.3915 19.7824 33.1784 19.799 32.9724 19.8298C32.7664 19.8605 32.5391 19.8937 32.2857 19.9245V19.9245ZM36.2638 16.6568C36.2638 16.0885 36.233 15.6386 36.169 15.3071C36.1051 14.9756 35.963 14.7317 35.7428 14.573C35.6173 14.4475 35.4658 14.3433 35.2929 14.2652C35.1201 14.1871 34.9543 14.1634 34.7957 14.1942C34.3529 14.2581 33.9267 14.5801 33.517 15.165C33.1074 15.7499 32.8848 16.3418 32.854 16.9409C34.0214 16.8462 35.158 16.7515 36.2638 16.6568V16.6568Z" fill="white"/>
<path d="M45.1671 13.5311C45.5767 13.2162 45.9319 12.932 46.2326 12.6787C46.5334 12.4253 46.8412 12.1885 47.1561 11.9683C48.5461 10.9264 49.8863 10.5949 51.1815 10.9738C52.4768 11.3526 53.4382 12.3472 54.0704 13.9573C54.1343 14.116 54.1888 14.2888 54.2361 14.4783C54.2835 14.6677 54.338 14.8405 54.4019 14.9992C54.686 16.0411 54.9536 16.9243 55.207 17.6512C55.4603 18.3782 55.6877 19.0791 55.8937 19.7587C56.0997 20.4383 56.2654 21.1557 56.3909 21.9135C56.5164 22.6712 56.5804 23.5876 56.5804 24.6602C56.5804 25.2925 56.4691 25.766 56.2489 26.081C56.0286 26.3959 55.6498 26.6327 55.1123 26.7913C54.0396 27.0755 53.3908 26.7274 53.1706 25.7495C53.0759 25.4653 53.0119 25.1646 52.9811 24.8497C52.9504 24.5347 52.9338 24.234 52.9338 23.9499C52.903 23.1613 52.8083 22.3941 52.6496 21.653C52.491 20.9118 52.2874 20.1778 52.034 19.4508C51.8446 18.8186 51.6551 18.1485 51.4657 17.4381C51.2763 16.7278 50.9921 16.105 50.6133 15.5675C50.3599 15.2194 50.0994 15.0229 49.8318 14.9755C49.5643 14.9282 49.2872 14.9684 49.0031 15.0939C48.7189 15.2194 48.4419 15.3946 48.1743 15.6149C47.9067 15.8351 47.6605 16.0576 47.4403 16.2779C47.0922 16.6259 46.7607 16.9717 46.4458 17.3197C46.1308 17.6678 45.8467 18.0467 45.5933 18.4563C45.3399 18.866 45.1434 19.2922 45.0013 19.735C44.8593 20.1778 44.819 20.6656 44.8829 21.2031L45.3092 24.6129C45.4986 25.8134 45.1505 26.5545 44.2673 26.8387C43.1615 27.1536 42.4203 26.7132 42.0415 25.5127C41.7881 24.6602 41.6626 23.8244 41.6626 23.0027V15.4491C41.6626 14.644 41.6792 13.6897 41.71 12.5839C41.71 12.0464 41.8047 11.5113 41.9941 10.9738C42.1528 10.4055 42.444 10.0811 42.8702 10.0029C43.2964 9.92479 43.6824 10.1213 44.0305 10.5949C44.1891 10.8483 44.3146 11.1395 44.4094 11.471C44.5041 11.8025 44.6154 12.1269 44.7409 12.4419C44.8048 12.6005 44.8593 12.7568 44.9066 12.9154C44.954 13.0741 45.0416 13.2777 45.1671 13.5311V13.5311Z" fill="white"/>
<path d="M77.6547 16.1832C77.7186 17.4453 77.7897 18.6292 77.8678 19.735C77.9459 20.8408 78.0028 21.9443 78.0336 23.0501C78.0975 23.9973 77.9554 24.8805 77.6073 25.7021C77.4487 26.081 77.2214 26.4196 76.9206 26.7203C76.6199 27.0211 76.2032 27.1063 75.6657 26.9808C75.1613 26.8553 74.7351 26.673 74.387 26.4362C74.0389 26.1994 73.8021 25.8134 73.6766 25.2759C73.5819 24.8331 73.4943 24.3761 73.4161 23.9025C73.338 23.429 73.2812 22.972 73.2504 22.5292C73.0302 19.2449 72.9899 15.9867 73.132 12.7497C73.2741 9.51282 73.5038 6.2688 73.8187 3.01767C73.9134 2.1013 74.1028 1.49511 74.387 1.19439C74.6711 0.893668 75.256 0.727916 76.1392 0.697133C77.7494 0.6332 79.3596 0.602417 80.9697 0.602417H85.8003C86.0536 0.602417 86.2975 0.642671 86.5343 0.720812C86.7711 0.798953 87.0008 0.886565 87.221 0.981281C88.6725 1.73901 89.2882 2.63881 89.068 3.68068C88.9093 4.37448 88.5778 4.8007 88.0734 4.95935C87.5691 5.118 87.0316 5.19614 86.4633 5.19614C85.58 5.26007 84.7039 5.28375 83.8349 5.26718C82.9659 5.2506 82.0755 5.2435 81.1592 5.2435C80.7164 5.27428 80.2594 5.28375 79.7858 5.26718C79.3122 5.2506 78.8079 5.2435 78.2703 5.2435C78.2064 6.19066 78.1519 7.09756 78.1046 7.96658C78.0572 8.8356 78.0028 9.75908 77.9388 10.737C78.5711 10.6731 79.1394 10.6257 79.6437 10.5949C80.1481 10.5642 80.6548 10.5168 81.1592 10.4529C81.7275 10.3889 82.2721 10.4055 82.793 10.5002C83.314 10.5949 83.7804 10.8791 84.1901 11.3527C84.4103 11.606 84.6163 11.921 84.8057 12.2998C84.9952 12.6787 85.0425 13.0102 84.9478 13.2944C84.8531 13.6424 84.6471 13.9645 84.3322 14.2652C84.0172 14.5659 83.6857 14.7932 83.3376 14.9519C82.9896 15.1105 82.5965 15.2052 82.1537 15.236C81.7109 15.2668 81.2847 15.3307 80.875 15.4255C80.3707 15.5202 79.8639 15.6315 79.3596 15.757C78.8552 15.8825 78.2869 16.0245 77.6547 16.1832V16.1832Z" fill="white"/>
<path d="M94.4667 26.223C94.308 26.538 94.0476 26.7511 93.6853 26.8624C93.323 26.9737 92.9039 26.95 92.4303 26.7913C91.9875 26.6327 91.6797 26.3817 91.5068 26.0336C91.334 25.6855 91.199 25.2924 91.1043 24.8497C90.8841 23.8078 90.7254 23.0903 90.6307 22.6949C90.536 22.2994 90.4649 21.9679 90.4176 21.7003C90.3702 21.4328 90.3063 21.0918 90.2282 20.6822C90.15 20.2725 90.0316 19.5456 89.873 18.5037C89.7143 17.5873 89.6291 16.6875 89.6125 15.8043C89.5959 14.9211 89.5722 14.0213 89.5415 13.1049C89.5107 12.1885 89.6764 11.5965 90.0387 11.329C90.401 11.0614 91.0096 11.0045 91.862 11.1632C92.1769 11.2271 92.4942 11.2271 92.8092 11.1632C93.1241 11.0993 93.4414 11.0377 93.7563 10.9738C95.0516 10.6257 96.2971 10.531 97.4976 10.6896C98.6981 10.8483 99.8181 11.3834 100.86 12.2998C101.144 12.5532 101.374 12.8278 101.547 13.1286C101.72 13.4293 101.682 13.7679 101.428 14.1468C101.175 14.5256 100.877 14.7624 100.529 14.8571C100.18 14.9518 99.8016 14.9211 99.3919 14.7624C99.2333 14.6985 99.0912 14.644 98.9657 14.5967C98.8402 14.5493 98.6981 14.4948 98.5395 14.4309C97.1827 13.9573 96.1645 13.9265 95.4849 14.3362C94.8053 14.7458 94.3554 15.6622 94.1352 17.0829C93.9458 18.409 93.9765 19.735 94.2299 21.061C94.4833 22.387 94.6561 23.7131 94.7508 25.0391C94.7508 25.5127 94.6561 25.9081 94.4667 26.223V26.223Z" fill="white"/>
<path d="M105.641 19.9245C105.641 22.451 106.747 23.8244 108.956 24.0446C109.493 24.1086 110.045 24.1228 110.614 24.092C111.182 24.0612 111.75 24.0446 112.318 24.0446C113.391 24.0754 114.101 24.5348 114.45 25.418C114.544 25.7329 114.551 26.0029 114.473 26.2231C114.395 26.4433 114.182 26.5854 113.834 26.6493C112.477 26.8695 111.127 26.9737 109.785 26.9571C108.442 26.9406 107.14 26.538 105.878 25.7495C104.867 25.1173 104.125 24.3453 103.652 23.429C103.178 22.5126 102.863 21.5181 102.705 20.4454C102.546 19.6238 102.532 18.8045 102.657 17.9828C102.783 17.1611 102.972 16.3418 103.226 15.5202C103.574 14.5091 104.085 13.6661 104.765 12.9865C105.444 12.3069 106.226 11.715 107.109 11.2106C108.182 10.5784 109.224 10.6731 110.235 11.4948C110.488 11.6842 110.708 11.8902 110.898 12.1104C111.087 12.3306 111.26 12.5674 111.419 12.8208C111.956 13.6424 112.366 14.5091 112.65 15.4255C112.934 16.3418 113.154 17.2724 113.313 18.2196C113.408 18.8518 113.36 19.2544 113.171 19.4272C112.981 19.6001 112.572 19.7043 111.94 19.735H109.453C108.617 19.735 107.789 19.7516 106.967 19.7824C106.747 19.7824 106.534 19.799 106.328 19.8298C106.122 19.8605 105.894 19.8937 105.641 19.9245V19.9245ZM109.619 16.6568C109.619 16.0885 109.588 15.6386 109.524 15.3071C109.46 14.9756 109.318 14.7317 109.098 14.573C108.973 14.4475 108.821 14.3433 108.648 14.2652C108.475 14.1871 108.31 14.1634 108.151 14.1942C107.708 14.2581 107.282 14.5801 106.872 15.165C106.463 15.7499 106.24 16.3418 106.209 16.9409C107.377 16.8462 108.513 16.7515 109.619 16.6568Z" fill="white"/>
<path d="M118.522 13.5311C118.932 13.2162 119.287 12.932 119.588 12.6787C119.889 12.4253 120.196 12.1885 120.511 11.9683C121.901 10.9264 123.242 10.5949 124.537 10.9738C125.832 11.3526 126.793 12.3472 127.426 13.9573C127.49 14.116 127.544 14.2888 127.591 14.4783C127.639 14.6677 127.693 14.8405 127.757 14.9992C128.041 16.0411 128.309 16.9243 128.562 17.6512C128.816 18.3782 129.043 19.0791 129.249 19.7587C129.455 20.4383 129.621 21.1557 129.746 21.9135C129.872 22.6712 129.936 23.5876 129.936 24.6602C129.936 25.2925 129.824 25.766 129.604 26.081C129.384 26.3959 129.005 26.6327 128.467 26.7913C127.395 27.0755 126.746 26.7274 126.526 25.7495C126.431 25.4653 126.367 25.1646 126.336 24.8497C126.306 24.5347 126.289 24.234 126.289 23.9499C126.258 23.1613 126.164 22.3941 126.005 21.653C125.846 20.9118 125.643 20.1778 125.389 19.4508C125.2 18.8186 125.01 18.1485 124.821 17.4381C124.631 16.7278 124.347 16.105 123.968 15.5675C123.715 15.2194 123.455 15.0229 123.187 14.9755C122.919 14.9282 122.642 14.9684 122.358 15.0939C122.074 15.2194 121.797 15.3946 121.53 15.6149C121.262 15.8351 121.016 16.0576 120.795 16.2779C120.447 16.6259 120.116 16.9717 119.801 17.3197C119.486 17.6678 119.202 18.0467 118.949 18.4563C118.695 18.866 118.499 19.2922 118.357 19.735C118.214 20.1778 118.174 20.6656 118.238 21.2031L118.664 24.6129C118.854 25.8134 118.506 26.5545 117.623 26.8387C116.517 27.1536 115.776 26.7132 115.397 25.5127C115.143 24.6602 115.018 23.8244 115.018 23.0027V15.4491C115.018 14.644 115.034 13.6897 115.065 12.5839C115.065 12.0464 115.16 11.5113 115.349 10.9738C115.508 10.4055 115.799 10.0811 116.225 10.0029C116.652 9.92479 117.038 10.1213 117.386 10.5949C117.544 10.8483 117.67 11.1395 117.765 11.471C117.859 11.8025 117.971 12.1269 118.096 12.4419C118.16 12.6005 118.214 12.7568 118.262 12.9154C118.309 13.0741 118.397 13.2777 118.522 13.5311V13.5311Z" fill="white"/>
<path d="M137.489 10.3582C137.899 10.2634 138.216 10.2871 138.436 10.4292C138.657 10.5713 138.927 10.737 139.241 10.9265C139.336 10.9904 139.447 11.0851 139.573 11.2106C139.762 11.4308 139.921 11.7008 140.047 12.0157C140.141 12.2691 140.205 12.5058 140.236 12.7261C140.267 12.9463 140.158 13.1523 139.904 13.3417C139.841 13.4056 139.786 13.4435 139.739 13.4601C139.691 13.4767 139.637 13.5004 139.573 13.5311C139.414 13.5004 139.289 13.4672 139.194 13.4364C139.099 13.4056 139.005 13.3583 138.91 13.2944C138.846 13.2304 138.799 13.1925 138.768 13.176C138.737 13.1594 138.704 13.1215 138.673 13.0576C138.484 12.8373 138.23 12.6621 137.915 12.5366C137.601 12.4111 137.3 12.3638 137.016 12.3945C136.731 12.4253 136.478 12.5366 136.258 12.7261C136.038 12.9155 135.926 13.2162 135.926 13.6259C135.957 13.7514 136.021 13.8792 136.116 14.0047C136.369 14.2581 136.668 14.3907 137.016 14.4073C137.364 14.4238 137.709 14.5257 138.058 14.7151C138.121 14.7459 138.169 14.7624 138.2 14.7624C138.23 14.7624 138.264 14.779 138.294 14.8098C138.358 14.8406 138.42 14.8737 138.484 14.9045C138.548 14.9353 138.609 14.9685 138.673 14.9992L139.099 15.1413C139.542 15.3 139.968 15.4657 140.378 15.6386C140.788 15.8114 141.183 16.0103 141.562 16.2305C142.036 16.4839 142.469 16.8154 142.864 17.2251C143.26 17.6347 143.615 18.0609 143.93 18.5037C144.657 19.6095 144.908 20.713 144.688 21.8188C144.467 22.9246 143.852 23.886 142.841 24.7076C141.924 25.4346 140.97 25.8987 139.976 26.1047C138.981 26.3107 137.932 26.3344 136.826 26.1757C135.626 26.0171 134.57 25.624 133.653 24.9918C132.737 24.3595 131.932 23.571 131.238 22.6239C130.89 22.1811 130.748 21.7477 130.812 21.3215C130.876 20.8953 131.096 20.5709 131.475 20.3507C132.107 20.0026 132.611 20.1778 132.99 20.8716C133.433 21.6294 133.961 22.2284 134.577 22.6712C135.192 23.114 135.91 23.4597 136.732 23.7131C137.868 24.0612 138.815 24.1085 139.573 23.8552C140.331 23.6018 141.041 22.972 141.704 21.9609C142.019 21.5181 142.154 21.0682 142.107 20.6112C142.059 20.1542 141.815 19.735 141.373 19.3562C140.077 18.1556 138.548 17.3671 136.779 16.9883C136.18 16.8628 135.673 16.6497 135.263 16.3489C134.854 16.0482 134.458 15.6788 134.079 15.236C133.637 14.6985 133.424 14.0687 133.44 13.3417C133.457 12.6148 133.701 11.9849 134.174 11.4474L134.364 11.258L134.553 11.0685C134.901 10.9099 135.287 10.7299 135.713 10.5239C136.14 10.3179 136.589 10.2469 137.063 10.3108C137.222 10.3108 137.364 10.3274 137.489 10.3582V10.3582Z" fill="white"/>
<path d="M138.235 26.5143C137.764 26.5143 137.283 26.4788 136.793 26.4101C135.564 26.2491 134.461 25.8371 133.518 25.1859C132.585 24.5419 131.754 23.7273 131.046 22.7636C130.663 22.2758 130.504 21.7785 130.577 21.286C130.651 20.7887 130.914 20.4028 131.356 20.1447C131.719 19.9458 132.052 19.8913 132.358 19.9813C132.687 20.0784 132.969 20.3388 133.199 20.758C133.618 21.4778 134.129 22.0579 134.714 22.4794C135.306 22.9056 136.007 23.2442 136.8 23.4881C137.882 23.8196 138.792 23.867 139.497 23.6326C140.2 23.3982 140.875 22.792 141.505 21.833C141.794 21.4281 141.912 21.0397 141.87 20.6372C141.83 20.2441 141.609 19.8747 141.216 19.5385C139.952 18.3664 138.443 17.5897 136.727 17.2227C136.097 17.0901 135.557 16.8628 135.121 16.5431C134.697 16.2353 134.285 15.8469 133.897 15.3923C133.416 14.8098 133.184 14.1207 133.201 13.3393C133.217 12.5603 133.485 11.8712 133.994 11.2935L134.413 10.8743L134.454 10.8554C134.799 10.6991 135.185 10.5192 135.609 10.3132C136.071 10.0906 136.566 10.0124 137.077 10.0764C137.224 10.0764 137.361 10.0906 137.489 10.1166C137.937 10.0219 138.299 10.0598 138.564 10.2303C138.782 10.3723 139.05 10.5357 139.362 10.7228C139.481 10.8009 139.599 10.9051 139.739 11.0425C139.957 11.2958 140.129 11.5894 140.264 11.9281C140.366 12.2004 140.435 12.4561 140.468 12.6929C140.499 12.906 140.449 13.2209 140.058 13.5217C139.971 13.6069 139.893 13.659 139.812 13.685C139.777 13.6969 139.729 13.7182 139.677 13.7442L139.606 13.7798L139.528 13.7655C139.365 13.7324 139.227 13.6992 139.118 13.6637C139.005 13.6258 138.889 13.569 138.777 13.4932L138.744 13.4648C138.68 13.4009 138.657 13.3867 138.654 13.3867C138.588 13.3559 138.529 13.292 138.477 13.1949C138.316 13.0126 138.095 12.8681 137.828 12.7592C137.551 12.6479 137.286 12.6053 137.042 12.6337C136.802 12.6597 136.596 12.7497 136.412 12.9084C136.251 13.0457 136.168 13.2778 136.163 13.5974C136.187 13.6803 136.232 13.7655 136.296 13.8508C136.504 14.0544 136.743 14.1586 137.027 14.1728C137.411 14.1918 137.795 14.3031 138.171 14.5091C138.204 14.5256 138.218 14.5304 138.221 14.5304C138.259 14.528 138.344 14.5446 138.429 14.6156C138.481 14.6417 138.536 14.6701 138.588 14.6961C138.647 14.7269 138.706 14.7553 138.763 14.7837L139.175 14.9211C139.623 15.0821 140.058 15.2502 140.47 15.4254C140.889 15.603 141.297 15.8067 141.68 16.0316C142.166 16.2897 142.623 16.6402 143.035 17.0664C143.435 17.4831 143.802 17.9236 144.122 18.3711C144.884 19.5337 145.152 20.7082 144.92 21.8709C144.688 23.0264 144.039 24.0446 142.99 24.897C142.047 25.6453 141.05 26.1307 140.023 26.3415C139.447 26.4599 138.848 26.519 138.235 26.519V26.5143ZM132.067 20.4146C131.925 20.4146 131.764 20.462 131.591 20.559C131.281 20.7414 131.101 21.0018 131.048 21.357C130.994 21.7193 131.117 22.0863 131.427 22.4794C132.107 23.4076 132.9 24.1867 133.79 24.8C134.669 25.4061 135.704 25.7921 136.859 25.9436C137.934 26.0976 138.967 26.0739 139.93 25.875C140.885 25.6784 141.815 25.2238 142.696 24.5253C143.655 23.7462 144.25 22.8204 144.458 21.7761C144.664 20.739 144.422 19.6829 143.733 18.6387C143.43 18.2148 143.08 17.7933 142.694 17.3932C142.317 17.0025 141.898 16.6828 141.451 16.4436C141.074 16.2258 140.686 16.0316 140.286 15.8611C139.881 15.6906 139.455 15.5249 139.019 15.3686L138.569 15.2171C138.505 15.1863 138.441 15.1531 138.377 15.12C138.316 15.0892 138.252 15.0584 138.188 15.0253L138.145 14.9992C138.088 14.9898 138.024 14.9684 137.951 14.9306C137.631 14.7577 137.316 14.663 137.006 14.6488C136.599 14.6298 136.244 14.4712 135.95 14.1776L135.929 14.1539C135.815 14.0023 135.737 13.8461 135.699 13.6898L135.692 13.6329C135.692 13.1523 135.832 12.7876 136.106 12.5532C136.362 12.333 136.66 12.2027 136.992 12.1672C137.314 12.1317 137.655 12.1838 138.005 12.3235C138.356 12.4632 138.642 12.6621 138.855 12.9107L138.889 12.9605C138.893 12.9723 138.898 12.9794 138.903 12.9865C138.95 13.0149 139 13.0575 139.061 13.1167C139.132 13.1617 139.201 13.1973 139.27 13.2186C139.343 13.2422 139.436 13.2683 139.544 13.2896C139.587 13.2707 139.627 13.2541 139.663 13.2422C139.663 13.2422 139.687 13.2304 139.739 13.1807L139.765 13.1594C140.03 12.9605 140.011 12.8137 140.004 12.7663C139.975 12.5627 139.914 12.3401 139.826 12.1057C139.713 11.8191 139.566 11.5705 139.395 11.3716C139.294 11.2698 139.194 11.1845 139.111 11.1301C138.803 10.9454 138.533 10.7796 138.311 10.6352C138.147 10.5286 137.889 10.5168 137.546 10.5949L137.492 10.6068L137.437 10.5926C137.328 10.5665 137.203 10.5523 137.068 10.5523H137.037C136.606 10.4931 136.208 10.5547 135.822 10.7417C135.41 10.9406 135.034 11.1159 134.697 11.2698L134.349 11.6179C133.921 12.1056 133.698 12.6763 133.684 13.3488C133.67 14.0236 133.859 14.5919 134.269 15.0868C134.631 15.5107 135.015 15.8706 135.41 16.1595C135.791 16.4389 136.27 16.6402 136.836 16.7586C138.638 17.1445 140.222 17.9615 141.541 19.1833C142.021 19.5953 142.296 20.0689 142.35 20.5875C142.403 21.1013 142.253 21.6104 141.905 22.0982C141.221 23.1424 140.463 23.8102 139.656 24.0801C138.853 24.3477 137.849 24.3003 136.67 23.9404C135.827 23.6823 135.079 23.32 134.446 22.8654C133.807 22.406 133.251 21.7761 132.794 20.9924C132.623 20.6822 132.436 20.4975 132.232 20.4383C132.183 20.4241 132.128 20.417 132.071 20.417L132.067 20.4146ZM138.874 12.9628L138.884 12.9676C138.884 12.9676 138.877 12.9628 138.874 12.9628Z" fill="white"/>
</g>
<defs>
<clipPath id="clip0_63_191">
<rect width="144.74" height="26.4352" fill="white" transform="translate(0.259766 0.602417)"/>
</clipPath>
</defs>
</svg>
