<svg width="203" height="8" viewBox="0 0 203 8" fill="none" xmlns="http://www.w3.org/2000/svg">
<path d="M199.085 0.710988L3.06567 0.942789C2.30422 0.94369 1.61415 1.32525 1.22753 1.95914C0.877484 2.53306 0.816462 3.24849 1.06163 3.90412L1.23304 4.3625C1.74041 5.71931 3.05356 6.63937 4.48027 6.63769L199.396 6.40719C200.972 6.40533 202.179 5.12868 202.093 3.55572C202.007 1.98275 200.661 0.709125 199.085 0.710988Z" fill="#FFFC70" stroke="#1B1C36" stroke-width="0.747808"/>
<path d="M1.39726 3.04862C1.44698 3.95909 2.2601 4.89341 2.31052 5.81657C2.40339 6.27678 5.79741 6.3519 7.48281 6.33193L196.28 6.10867C201.614 6.10236 202.286 5.60753 201.955 5.36091C201.986 4.77535 201.996 3.32983 201.784 2.23222C201.572 1.13462 198.605 1.01005 197.149 1.08496C187.471 1.0964 14.1821 1.12272 4.58371 1.31268C1.41664 1.37536 2.71088 1.67039 2.01835 2.01712C1.36687 2.3433 1.37859 2.70676 1.39726 3.04862Z" stroke="#0F0F0F" stroke-width="0.959537" stroke-linecap="round"/>
<path d="M199.005 0.712686L3.06533 0.943054C2.30376 0.94395 1.61371 1.32564 1.22736 1.9597C0.877748 2.53346 0.817004 3.24856 1.0622 3.90395L1.23368 4.36228C1.7414 5.71933 3.05501 6.63961 4.48194 6.63793L199.318 6.40886C200.893 6.40701 202.1 5.13038 202.013 3.55742C201.927 1.98446 200.58 0.710834 199.005 0.712686Z" fill="white" stroke="#1B1C36" stroke-width="0.747808"/>
<path d="M1.3982 3.04886C1.4479 3.95933 2.26069 4.89365 2.31109 5.81681C2.40393 6.27703 5.79658 6.35214 7.4813 6.33217L196.203 6.10891C201.535 6.1026 202.206 5.60778 201.875 5.36115C201.907 4.77559 201.917 3.33007 201.704 2.23247C201.492 1.13487 198.527 1.01029 197.071 1.0852C187.397 1.09665 14.1779 1.12297 4.58337 1.31293C1.41757 1.3756 2.71129 1.67064 2.01904 2.01737C1.36782 2.34354 1.37954 2.70701 1.3982 3.04886Z" fill="white" stroke="#0F0F0F" stroke-width="0.959537" stroke-linecap="round"/>
</svg>
