<svg width="203" height="8" viewBox="0 0 203 8" fill="none" xmlns="http://www.w3.org/2000/svg">
<path d="M199.085 0.710988L3.06569 0.942789C2.30424 0.943689 1.61417 1.32525 1.22755 1.95914C0.877502 2.53306 0.81648 3.24849 1.06165 3.90412L1.23306 4.3625C1.74043 5.71931 3.05357 6.63937 4.48029 6.63769L199.396 6.40719C200.972 6.40533 202.179 5.12868 202.093 3.55572C202.007 1.98275 200.661 0.709125 199.085 0.710988Z" fill="#FFFC70" stroke="#1B1C36" stroke-width="0.747808"/>
<path d="M1.39726 3.04862C1.44698 3.95909 2.2601 4.89341 2.31052 5.81657C2.40339 6.27678 5.79741 6.3519 7.48281 6.33193L196.28 6.10867C201.614 6.10236 202.286 5.60753 201.955 5.36091C201.986 4.77535 201.996 3.32983 201.784 2.23222C201.572 1.13462 198.605 1.01005 197.149 1.08496C187.471 1.0964 14.1821 1.12272 4.58371 1.31268C1.41664 1.37536 2.71088 1.67039 2.01835 2.01712C1.36687 2.3433 1.37859 2.70676 1.39726 3.04862Z" stroke="#0F0F0F" stroke-width="0.959537" stroke-linecap="round"/>
<path d="M198.813 0.713808L68.8724 0.941886C68.0123 0.943396 67.2514 1.45076 66.9307 2.23666C66.759 2.65731 66.7272 3.12618 66.8399 3.57591L66.9416 3.98179C67.3303 5.53279 68.7428 6.63928 70.3304 6.63649L199.023 6.41061C200.597 6.40784 201.826 5.13033 201.768 3.5572C201.71 1.98408 200.387 0.711045 198.813 0.713808Z" fill="white" stroke="#1B1C36" stroke-width="0.747808"/>
<path d="M67.2664 3.04886C67.2997 3.95933 67.8442 4.89365 67.8779 5.81681C67.9401 6.27703 70.2126 6.35214 71.3411 6.33217L197.752 6.10891C201.324 6.1026 201.773 5.60778 201.552 5.36115C201.573 4.77559 201.58 3.33007 201.437 2.23247C201.295 1.13487 199.309 1.01029 198.334 1.0852C191.854 1.09665 75.8267 1.12297 69.3999 1.31293C67.2794 1.3756 68.146 1.67064 67.6823 2.01737C67.2461 2.34354 67.2539 2.70701 67.2664 3.04886Z" fill="white" stroke="#0F0F0F" stroke-width="0.959537" stroke-linecap="round"/>
</svg>
