<svg width="203" height="8" viewBox="0 0 203 8" fill="none" xmlns="http://www.w3.org/2000/svg">
<path d="M199.085 0.711354L3.06569 0.943155C2.30424 0.944056 1.61417 1.32561 1.22755 1.95951C0.877502 2.53343 0.81648 3.24886 1.06165 3.90449L1.23306 4.36287C1.74043 5.71968 3.05357 6.63974 4.48029 6.63805L199.396 6.40756C200.972 6.40569 202.179 5.12904 202.093 3.55608C202.007 1.98312 200.661 0.709491 199.085 0.711354Z" fill="#00FFA8" stroke="#0F0F0F" stroke-width="0.747808"/>
<path d="M1.39726 3.04898C1.44698 3.95945 2.2601 4.89377 2.31052 5.81694C2.40339 6.27715 5.79741 6.35226 7.48281 6.33229L196.28 6.10903C201.614 6.10273 202.286 5.6079 201.955 5.36127C201.986 4.77571 201.996 3.33019 201.784 2.23259C201.572 1.13499 198.605 1.01041 197.149 1.08532C187.471 1.09677 14.1821 1.12309 4.58371 1.31305C1.41664 1.37573 2.71088 1.67076 2.01835 2.01749C1.36687 2.34367 1.37859 2.70713 1.39726 3.04898Z" stroke="#0F0F0F" stroke-width="0.959537" stroke-linecap="round"/>
</svg>
