<?xml version="1.0" encoding="UTF-8"?><svg id="Layer_2" xmlns="http://www.w3.org/2000/svg" viewBox="0 0 293.99 90.98"><defs><style>.cls-1{fill:#fff8f8;}</style></defs><g id="Layer_1-2"><g><g><path class="cls-1" d="M87.9,36.89c-1.81,.07-3.46-.2-4.94-.81-1.48-.61-2.8-1.42-3.95-2.43-1.16-1.01-2.15-2.17-2.99-3.48-.83-1.31-1.47-2.64-1.91-3.98-1.63-4.91-1.74-9.82-.33-14.71,.66-2.36,1.7-4.41,3.13-6.14,1.43-1.74,3.21-3.2,5.33-4.41,.99-.54,2.09-.84,3.31-.91,1.21-.07,2.43,.06,3.63,.39,1.2,.33,2.31,.86,3.32,1.58,1.01,.72,1.81,1.58,2.39,2.57,.41,.77,.76,1.55,1.04,2.36,.28,.8,.51,1.63,.7,2.48,.19,.71,.1,1.33-.3,1.84-.4,.51-.9,.87-1.53,1.07-.62,.11-1.13,.03-1.51-.25s-.74-.82-1.07-1.63c-.12-.36-.24-.74-.36-1.14-.12-.4-.26-.78-.42-1.14-1.38-3.4-3.69-4.26-6.93-2.57-3.47,1.78-5.61,4.45-6.45,8.04-1.09,4.42-.67,8.65,1.26,12.7,.7,1.44,1.63,2.63,2.78,3.58,1.16,.95,2.42,1.6,3.8,1.96,1.38,.36,2.8,.42,4.27,.19s2.85-.79,4.16-1.67c.27-.21,.58-.39,.92-.53,.34-.14,.68-.25,1.04-.33,.62-.11,1.17,0,1.64,.33,.47,.33,.85,.78,1.14,1.36,.25,.54,.28,1.03,.11,1.46-.17,.43-.46,.84-.87,1.23-1.19,1.1-2.52,1.86-3.99,2.27-1.47,.41-2.98,.68-4.53,.8-.35,.03-.68,.02-.96-.03-.29-.05-.61-.07-.96-.03Z"/><path class="cls-1" d="M108.72,32.34c.84-.06,1.6-.1,2.29-.12,.68-.02,1.34-.04,1.96-.06,1.37,0,2.73,0,4.07-.02,1.35-.02,2.68,.04,4,.18,1.41,.14,2.42,.46,3.04,.97,.62,.51,.92,1.2,.89,2.09-.05,1.5-1.43,2.22-4.12,2.17-.53-.02-1.06-.05-1.59-.09-.53-.04-1.08-.05-1.66-.03-2.21,0-4.35,.06-6.43,.16-.4-.01-.79,0-1.16,.06-.38,.05-.76,.07-1.16,.06-1.1,0-2.02-.06-2.74-.2-.72-.14-1.31-.4-1.76-.79-.45-.39-.78-.93-1-1.63-.22-.69-.37-1.59-.46-2.7-.34-4.16-.66-8.32-.97-12.48-.31-4.16-.64-8.32-.97-12.49-.07-.66-.1-1.32-.1-1.96,0-.64,.04-1.29,.1-1.95,.12-.83,.43-1.5,.93-1.99,.5-.49,1.09-.76,1.75-.83,.66-.02,1.24,.21,1.73,.69,.49,.48,.79,1.17,.89,2.05,.24,1.95,.43,3.89,.58,5.82,.15,1.92,.3,3.88,.45,5.88,.14,2.17,.28,4.33,.43,6.47,.14,2.15,.28,4.3,.43,6.47,.07,.62,.15,1.26,.26,1.93,.11,.66,.21,1.44,.31,2.33Z"/><path class="cls-1" d="M136.36,31.76c-.21-4.02-.39-7.93-.54-11.71-.15-3.78-.33-7.64-.54-11.57-.57-.11-1.12-.24-1.64-.39-.52-.15-1.07-.28-1.64-.39-.57-.15-1.14-.3-1.71-.43-.57-.13-1.09-.34-1.57-.62-.61-.33-1.13-.76-1.58-1.28-.44-.52-.5-1.2-.16-2.03,.29-.74,.72-1.33,1.29-1.77,.57-.44,1.29-.63,2.17-.55,2.07,.17,4.13,.35,6.17,.56,2.05,.21,4.12,.39,6.24,.56,.75,.07,1.49,.12,2.21,.15s1.46,.1,2.21,.21c.48,.11,.97,.19,1.48,.25,.5,.06,.86,.25,1.07,.57,.17,.27,.38,.56,.63,.85,.25,.3,.47,.6,.66,.92s.32,.65,.39,1.01c.07,.36,.02,.75-.17,1.19-.34,.74-.83,1.2-1.47,1.37s-1.32,.27-2.03,.29c-1.02,0-2.06-.02-3.14-.08-1.08-.06-2.22-.11-3.41-.16-.03,.88-.09,1.73-.16,2.54-.08,.81-.08,1.62-.02,2.42,.09,2.3,.2,4.59,.31,6.86,.12,2.28,.24,4.59,.38,6.93,.05,1.02,.12,1.8,.21,2.36s.26,.99,.52,1.31c.25,.32,.64,.53,1.17,.64,.53,.11,1.29,.22,2.31,.35,1.89,.2,3.22,1.13,4,2.79,.81,1.93,.22,3.12-1.78,3.58-.49,.11-1,.17-1.53,.18-.53,0-1.04,0-1.52-.02-1.55-.01-3.1-.01-4.67,0-1.57,.01-3.12-.06-4.66-.2-2.07-.16-4.09-.57-6.05-1.21-.61-.2-1.16-.55-1.65-1.05-.49-.5-.61-1.19-.35-2.07,.55-1.66,1.66-2.5,3.33-2.53,.75-.02,1.52,0,2.32,.05s1.76,.1,2.91,.14Z"/><path class="cls-1" d="M166.73,39.74c-1.81,.07-3.46-.2-4.94-.81-1.48-.61-2.8-1.42-3.95-2.43-1.16-1.01-2.15-2.17-2.99-3.48-.83-1.31-1.47-2.64-1.91-3.98-1.63-4.91-1.74-9.82-.33-14.71,.66-2.36,1.7-4.41,3.13-6.14,1.43-1.74,3.21-3.2,5.33-4.41,.99-.54,2.09-.84,3.31-.91,1.21-.07,2.43,.06,3.63,.39,1.2,.33,2.31,.86,3.32,1.58,1.01,.72,1.81,1.58,2.39,2.57,.41,.77,.76,1.55,1.04,2.36,.28,.8,.51,1.63,.7,2.48,.19,.71,.1,1.33-.3,1.84-.4,.51-.9,.87-1.53,1.07-.62,.11-1.13,.03-1.51-.25s-.74-.82-1.07-1.63c-.12-.36-.24-.74-.36-1.14-.12-.4-.26-.78-.42-1.14-1.38-3.4-3.69-4.26-6.93-2.57-3.47,1.78-5.61,4.45-6.45,8.04-1.09,4.42-.67,8.65,1.26,12.7,.7,1.44,1.63,2.63,2.78,3.58,1.16,.95,2.42,1.6,3.8,1.96,1.38,.36,2.8,.42,4.27,.19s2.85-.79,4.16-1.67c.27-.21,.58-.39,.92-.53,.34-.14,.68-.25,1.04-.33,.62-.11,1.17,0,1.64,.33,.47,.33,.85,.78,1.14,1.36,.25,.54,.28,1.03,.11,1.46-.17,.43-.46,.84-.87,1.23-1.19,1.1-2.52,1.86-3.99,2.27-1.47,.41-2.98,.68-4.53,.8-.35,.03-.68,.02-.96-.03-.29-.05-.61-.07-.96-.03Z"/><path class="cls-1" d="M186.65,19.87c.59-.6,1.08-1.08,1.44-1.44s.71-.71,1.03-1.06c1.2-1.46,2.4-2.9,3.6-4.34,1.2-1.43,2.4-2.88,3.6-4.34,.23-.26,.48-.51,.76-.77,.27-.26,.55-.51,.82-.76,1.05-.98,2.07-1.07,3.06-.29,1.25,.97,1.47,2.08,.67,3.34-.65,.95-1.32,1.87-2.02,2.77-.7,.9-1.41,1.8-2.15,2.71-.83,.99-1.67,1.97-2.52,2.95-.85,.98-1.74,1.99-2.66,3.01,1.31,1.59,2.66,3.07,4.04,4.42,1.39,1.35,2.83,2.65,4.33,3.9,1.2,1.02,2.38,2.05,3.53,3.11s2.28,2.14,3.39,3.23c.81,.78,1.28,1.53,1.41,2.24,.13,.71-.04,1.32-.5,1.84-.51,.56-1.22,.84-2.15,.85-.93,.01-1.76-.24-2.49-.75-.3-.19-.59-.41-.87-.66-.28-.25-.55-.5-.8-.73-2.09-1.93-4.17-3.85-6.22-5.75-2.05-1.91-4.1-3.82-6.15-5.75-.17-.14-.34-.25-.52-.35-.17-.09-.37-.19-.59-.29-.85,.32-1.4,.79-1.64,1.4-.24,.61-.31,1.31-.21,2.11,.18,1.11,.34,2.21,.48,3.29,.14,1.09,.23,2.16,.28,3.22,.05,1.06-.09,1.78-.41,2.14-.32,.36-.99,.62-2.01,.76-.98,.14-1.69,.06-2.14-.24-.45-.3-.75-.96-.89-1.99-.28-2.13-.5-4.26-.66-6.38-.17-2.13-.32-4.25-.46-6.38-.25-2.88-.43-5.74-.55-8.6s-.3-5.72-.55-8.6c-.14-1.11,.06-2.1,.57-2.96s1.17-1.32,1.97-1.39c.88-.06,1.6,.26,2.15,.94,.55,.68,.89,1.67,1.02,2.95,.12,1.55,.21,3.11,.26,4.68,.05,1.57,.14,3.13,.26,4.68,.03,.4,.08,.83,.15,1.3,.07,.47,.18,1.12,.33,1.97Z"/><path class="cls-1" d="M261.84,17.17c-.95,.67-1.89,1.32-2.82,1.95-.93,.63-1.84,1.26-2.75,1.89-1.18,.88-2.14,1.53-2.89,1.95s-1.44,.6-2.07,.55c-.64-.04-1.3-.33-1.99-.87-.69-.53-1.56-1.3-2.63-2.31-.94-.87-1.91-1.75-2.92-2.62-1.01-.87-2.07-1.82-3.18-2.83-.2,.61-.36,1.08-.48,1.41-.12,.33-.19,.67-.2,1.02-.31,2.51-.58,5-.8,7.49-.22,2.49-.47,4.98-.74,7.49-.06,.44-.13,.9-.22,1.38-.08,.48-.24,.9-.47,1.24-.28,.34-.63,.67-1.06,.99-.43,.31-.87,.49-1.31,.52-.27,.03-.6-.15-1.01-.57-.41-.41-.64-.79-.72-1.15-.43-1.52-.6-2.98-.5-4.39,.26-3.57,.54-7.1,.85-10.6,.3-3.5,.63-7.01,.98-10.53,.2-1.72,.59-2.77,1.17-3.17,.59-.4,1.69-.3,3.3,.29,.79,.25,1.54,.61,2.28,1.08s1.42,.98,2.06,1.53c1.37,1.11,2.71,2.26,4.01,3.46,1.3,1.2,2.66,2.44,4.07,3.72,1.72-1.13,3.4-2.24,5.05-3.33,1.65-1.09,3.31-2.18,4.98-3.26,1.4-.88,2.71-1.07,3.93-.59,1.22,.49,2.04,1.51,2.47,3.07,.12,.45,.21,.88,.28,1.3s.12,.88,.15,1.36c.24,3.06,.46,6.07,.67,9.03,.2,2.97,.42,5.98,.67,9.03,.09,1.11,.19,2.19,.28,3.26,.1,1.06,.16,2.15,.21,3.25,.03,.49-.03,.98-.15,1.48-.13,.5-.33,.95-.61,1.34-.79,1.12-1.64,1.62-2.54,1.5-.9-.12-1.57-.81-2.01-2.06-.32-.89-.51-1.89-.55-3-.17-2.52-.33-5.02-.46-7.5-.13-2.48-.31-4.98-.52-7.5-.05-1.02-.17-2-.35-2.96-.19-.96-.35-1.94-.49-2.96-.17-.09-.34-.16-.49-.18-.16-.03-.32-.09-.49-.18Z"/><path class="cls-1" d="M278.54,15.05c-.07,.75-.14,1.43-.21,2.05-.07,.62-.11,1.23-.13,1.85-.03,.88,.13,1.63,.48,2.23,.35,.61,1.03,.98,2.05,1.1,.44,.06,.87,.21,1.28,.44,.41,.24,.77,.49,1.06,.77,.72,.73,1,1.49,.84,2.28s-.69,1.41-1.59,1.86c-.54,.2-1.1,.38-1.68,.54-.58,.15-1.27,.35-2.07,.59,.09,1.15,.16,2.32,.2,3.52s.13,2.41,.26,3.65c.06,.71,.31,1.19,.74,1.45,.43,.26,.98,.36,1.65,.29,1.24-.13,2.47-.23,3.69-.3,1.22-.06,2.44-.16,3.69-.3,1.11-.14,2.05,.03,2.83,.5s1.41,1.16,1.91,2.06c.46,.81,.56,1.54,.32,2.2-.25,.65-.83,1.03-1.76,1.13-2.39,.22-4.79,.4-7.2,.53-2.41,.13-4.83,.2-7.26,.2-1.59-.01-2.77-.5-3.56-1.45-.78-.96-1.19-2.25-1.22-3.88-.15-4.29-.29-8.52-.4-12.7-.11-4.18-.23-8.39-.34-12.63-.05-1.24,.09-2.36,.39-3.36,.25-.74,.61-1.35,1.09-1.81,.48-.47,1.16-.71,2.04-.72,1.19,0,2.38-.01,3.58-.04,1.19-.02,2.37-.01,3.54,.03s2.33,.15,3.5,.33c1.16,.18,2.31,.48,3.44,.92,.61,.24,1.21,.54,1.79,.89,.58,.35,1.06,.78,1.44,1.28,.68,.78,.89,1.5,.65,2.18-.24,.68-.86,1.15-1.84,1.42-.58,.2-1.18,.31-1.8,.33-.62,.02-1.24,.07-1.86,.13-.75,.06-1.53,.1-2.32,.11-.8,.02-1.59,.05-2.39,.11-.75,.02-1.5,.04-2.25,.08s-1.62,.08-2.59,.14Z"/></g><path class="cls-1" d="M54.7,26.72c-16.79,12.39-30.97,28.19-41.42,46.25-2.94,5.08-5.56,10.32-7.88,15.71-.76,1.75,1.83,3.28,2.59,1.51,8.11-18.81,20.07-35.86,35.02-49.88,4.18-3.92,8.59-7.6,13.21-11.01,1.54-1.13,.04-3.74-1.51-2.59h0Z"/><path class="cls-1" d="M.09,74.56c1.81,5.09,3.63,10.19,5.44,15.28,.25,.71,1.04,1.35,1.85,1.05,5.58-2.13,11.16-4.26,16.75-6.38,1.79-.68,1.01-3.58-.8-2.89-5.58,2.13-11.16,4.26-16.75,6.38l1.85,1.05c-1.81-5.09-3.63-10.19-5.44-15.28-.64-1.81-3.54-1.03-2.89,.8H.09Z"/></g></g></svg>