<svg width="202" height="8" viewBox="0 0 202 8" fill="none" xmlns="http://www.w3.org/2000/svg">
<path d="M1.04359 3.48866C1.0655 4.4893 1.84814 5.51491 1.87035 6.52951C1.949 7.0352 5.33209 7.11218 7.01381 7.08747C67.5711 6.90886 190.02 6.61534 195.337 6.53202C201.002 6.44323 200.991 6.52172 201.02 5.70081C201.069 5.05715 201.123 3.46831 200.945 2.26224C200.766 1.05617 197.811 0.924119 196.356 1.00885C186.703 1.03732 13.8545 1.35084 4.27471 1.57539C1.1138 1.64948 2.39577 1.97164 1.69446 2.35388C1.03472 2.71346 1.03536 3.11294 1.04359 3.48866Z" fill="white" stroke="#0F0F0F" stroke-width="1.1" stroke-linecap="round"/>
<path d="M1.04359 3.48866C1.0655 4.4893 1.42246 5.51617 1.44468 6.53077C1.48549 7.03656 2.97511 7.11914 3.71482 7.0972C30.36 7.01861 84.2386 6.92734 86.577 6.8528C89.0688 6.77337 89.0649 6.85184 89.0676 6.031C89.0814 5.38745 89.0856 3.79875 88.9923 2.59244C88.899 1.38612 87.5971 1.24919 86.9578 1.33151C82.7104 1.34404 6.65463 1.37207 2.44194 1.5808C1.05193 1.64967 1.62 1.97393 1.31608 2.355C1.03018 2.71348 1.03536 3.11294 1.04359 3.48866Z" fill="#FFFC70" stroke="#0F0F0F" stroke-width="1.1" stroke-linecap="round"/>
</svg>
