<svg width="202" height="8" viewBox="0 0 202 8" fill="none" xmlns="http://www.w3.org/2000/svg">
<path d="M1.04359 3.71558C1.0655 4.71623 1.84814 5.74184 1.87035 6.75644C1.949 7.26212 5.33209 7.33911 7.01381 7.3144C67.5711 7.13579 190.02 6.84227 195.337 6.75895C201.002 6.67016 200.991 6.74865 201.02 5.92774C201.069 5.28408 201.123 3.69524 200.945 2.48917C200.766 1.2831 197.811 1.15105 196.356 1.23578C186.703 1.26425 13.8545 1.57776 4.27471 1.80232C1.1138 1.87641 2.39577 2.19857 1.69446 2.58081C1.03472 2.94039 1.03536 3.33987 1.04359 3.71558Z" fill="white" stroke="#0F0F0F" stroke-width="1.1" stroke-linecap="round"/>
<path d="M1.04359 3.71558C1.0655 4.71623 1.44527 5.74303 1.46748 6.75763C1.51032 7.26342 3.10138 7.34569 3.89156 7.3236C32.3535 7.23966 89.9055 7.13755 92.4034 7.06254C95.0652 6.98262 95.0609 7.06108 95.0651 6.24024C95.0808 5.59668 95.0877 4.00798 94.9898 2.80168C94.8919 1.59537 93.5015 1.4587 92.8185 1.54116C88.2815 1.55454 7.04034 1.59786 2.54013 1.80744C1.05525 1.87658 1.66156 2.20073 1.33635 2.58186C1.03043 2.9404 1.03536 3.33987 1.04359 3.71558Z" fill="#FFFC70" stroke="#0F0F0F" stroke-width="1.1" stroke-linecap="round"/>
</svg>
