<svg width="202" height="8" viewBox="0 0 202 8" fill="none" xmlns="http://www.w3.org/2000/svg">
<path d="M1.04359 3.5807C1.0655 4.58134 1.84814 5.60695 1.87035 6.62155C1.949 7.12724 5.33209 7.20422 7.01381 7.17951C67.5711 7.0009 190.02 6.70738 195.337 6.62406C201.002 6.53527 200.991 6.61376 201.02 5.79285C201.069 5.14919 201.123 3.56035 200.945 2.35428C200.766 1.14821 197.811 1.01616 196.356 1.10089C186.703 1.12936 13.8545 1.44288 4.27471 1.66743C1.1138 1.74152 2.39577 2.06368 1.69446 2.44592C1.03472 2.8055 1.03536 3.20498 1.04359 3.5807Z" fill="white" stroke="#0F0F0F" stroke-width="1.1" stroke-linecap="round"/>
<path d="M1.04359 3.5807C1.0655 4.58134 1.49145 5.608 1.51367 6.62261C1.56061 7.12838 3.3571 7.21005 4.24948 7.18766C36.3907 7.09286 101.382 6.96882 104.203 6.89285C107.209 6.81191 107.204 6.89038 107.211 6.06953C107.231 5.42596 107.243 3.83724 107.136 2.63096C107.029 1.42469 105.459 1.28855 104.688 1.37126C99.5642 1.38637 7.82148 1.46067 2.73897 1.67196C1.06196 1.74168 1.74573 2.0656 1.37741 2.44686C1.03092 2.80552 1.03536 3.20498 1.04359 3.5807Z" fill="#FFFC70" stroke="#0F0F0F" stroke-width="1.1" stroke-linecap="round"/>
</svg>
